<svg xmlns="http://www.w3.org/2000/svg" viewBox="0 0 182 182"><defs><style>.cls-1{fill:#848484;}.cls-2{fill:none;stroke:red;stroke-miterlimit:10;stroke-width:10px;}</style></defs><title>dressing</title><g id="Layer_2" data-name="Layer 2"><g id="Layer_1-2" data-name="Layer 1"><path class="cls-1" d="M45.64,48.19a24.37,24.37,0,0,0,0,34.42l50.83,50.82A24.33,24.33,0,0,0,130.88,99L80.06,48.19A24.37,24.37,0,0,0,45.64,48.19Zm81.54,81.54a19.12,19.12,0,0,1-27,0L49.35,78.9a19.09,19.09,0,0,1,27-27l50.83,50.83A19.12,19.12,0,0,1,127.18,129.73Z"/><rect class="cls-1" x="75.53" y="74.71" width="25.46" height="32.2" rx="2.93" transform="translate(-38.36 89.01) rotate(-45)"/><circle class="cls-1" cx="94.35" cy="117.02" r="2.25"/><circle class="cls-1" cx="99.38" cy="111.99" r="2.25"/><circle class="cls-1" cx="104.41" cy="106.96" r="2.25"/><circle class="cls-1" cx="109.44" cy="101.93" r="2.25"/><circle class="cls-1" cx="114.47" cy="96.9" r="2.25"/><circle class="cls-1" cx="103.88" cy="126.55" r="2.25"/><circle class="cls-1" cx="108.91" cy="121.52" r="2.25"/><circle class="cls-1" cx="113.94" cy="116.49" r="2.25"/><circle class="cls-1" cx="118.97" cy="111.46" r="2.25"/><circle class="cls-1" cx="124" cy="106.43" r="2.25"/><circle class="cls-1" cx="101.63" cy="119.27" r="2.25"/><circle class="cls-1" cx="106.66" cy="114.24" r="2.25"/><circle class="cls-1" cx="111.69" cy="109.21" r="2.25"/><circle class="cls-1" cx="116.72" cy="104.18" r="2.25"/><circle class="cls-1" cx="111.16" cy="128.8" r="2.25"/><circle class="cls-1" cx="116.19" cy="123.77" r="2.25"/><circle class="cls-1" cx="121.22" cy="118.74" r="2.25"/><circle class="cls-1" cx="126.25" cy="113.71" r="2.25"/><circle class="cls-1" cx="120.96" cy="128.54" r="2.25"/><circle class="cls-1" cx="125.99" cy="123.51" r="2.25"/><circle class="cls-1" cx="82.17" cy="64.6" r="2.25"/><circle class="cls-1" cx="77.14" cy="69.63" r="2.25"/><circle class="cls-1" cx="72.11" cy="74.66" r="2.25"/><circle class="cls-1" cx="67.08" cy="79.69" r="2.25"/><circle class="cls-1" cx="62.05" cy="84.72" r="2.25"/><circle class="cls-1" cx="72.64" cy="55.07" r="2.25"/><circle class="cls-1" cx="67.61" cy="60.1" r="2.25"/><circle class="cls-1" cx="62.58" cy="65.13" r="2.25"/><circle class="cls-1" cx="57.55" cy="70.16" r="2.25"/><circle class="cls-1" cx="52.52" cy="75.19" r="2.25"/><circle class="cls-1" cx="74.89" cy="62.35" r="2.25"/><circle class="cls-1" cx="69.86" cy="67.38" r="2.25"/><circle class="cls-1" cx="64.83" cy="72.41" r="2.25"/><circle class="cls-1" cx="59.8" cy="77.44" r="2.25"/><circle class="cls-1" cx="65.36" cy="52.82" r="2.25"/><circle class="cls-1" cx="60.33" cy="57.85" r="2.25"/><circle class="cls-1" cx="55.3" cy="62.88" r="2.25"/><circle class="cls-1" cx="50.27" cy="67.91" r="2.25"/><circle class="cls-1" cx="55.57" cy="53.09" r="2.25"/><circle class="cls-1" cx="50.54" cy="58.12" r="2.25"/><line class="cls-2" x1="29" y1="150" x2="150.5" y2="28.5"/><circle class="cls-2" cx="91" cy="91" r="86"/></g></g></svg>