<svg xmlns="http://www.w3.org/2000/svg" viewBox="0 0 391.76 159.8"><defs><style>.cls-1{fill:#c4383c;}.cls-2{fill:#423f3a;}</style></defs><title>swift-logo</title><g id="Layer_2" data-name="Layer 2"><g id="Layer_1-2" data-name="Layer 1"><path class="cls-1" d="M349.7,37.83c11.12,5.31,21.6,11.13,30.41,19.56a40.7,40.7,0,0,1,8.94,11.89c4,8.35,3.47,16.57-.84,24.65a48.13,48.13,0,0,1-10.68,13,106.41,106.41,0,0,1-22.11,14.75,233.77,233.77,0,0,1-37.29,15,384.49,384.49,0,0,1-43.05,11c-8.28,1.62-16.58,3.09-24.91,4.46-5.81.95-11.67,1.66-17.52,2.4q-8,1-16,1.85c-4.2.43-8.41.75-12.62,1.08q-8.1.63-16.21,1.18c-2.21.16-4.43.26-6.65.36q-21.12.94-42.26.73c-6.66-.07-13.33-.15-20-.41-7.09-.28-14.17-.73-21.25-1.17-4.87-.3-9.73-.65-14.59-1.08s-9.58-1-14.37-1.5-9.57-1.09-14.34-1.74c-5.2-.71-10.4-1.42-15.56-2.35-8.36-1.5-16.69-3.12-25-4.8-4.29-.86-8.53-1.95-12.8-2.95a2.53,2.53,0,0,1-1-.49c2.4.38,4.79.78,7.19,1.13,5,.73,10.06,1.46,15.1,2.14q6,.81,12.08,1.5c3.66.41,7.32.76,11,1.1,4.47.41,9,.82,13.43,1.18,3.34.27,6.69.53,10,.7,6.77.36,13.53.79,20.3,1,9.31.25,18.64.34,28,.41,5.58,0,11.16,0,16.74-.14s11.27-.3,16.9-.55c4.92-.22,9.84-.56,14.76-.86,3.78-.24,7.57-.45,11.35-.76,4.26-.35,8.52-.77,12.77-1.19,4.47-.44,8.94-.88,13.4-1.41s9.13-1.14,13.68-1.79c5.09-.74,10.18-1.46,15.23-2.38,8.67-1.57,17.35-3.13,26-5A358.35,358.35,0,0,0,302.09,126,203.74,203.74,0,0,0,338.3,109.7a93.07,93.07,0,0,0,19.27-14.56,47.55,47.55,0,0,0,7.57-9.73c6.44-11.34,5.9-22.44-1.29-33.23a55,55,0,0,0-12.09-12.42c-.64-.5-1.28-1-1.91-1.51C349.81,38.23,349.81,38.15,349.7,37.83Z"/><path class="cls-2" d="M125.53,56.15q-8.06,23.39-16.14,46.8H98.53c-6-22.73-11.91-45.39-17.9-68.21H95q6.42,25.21,12.9,50.63c.79-.32.79-1,1-1.49q4-12,8-24,3.95-11.87,7.9-23.74c.15-.46.33-.9.52-1.4h6.23l18.93,51,.41,0c1.9-8.47,3.63-17,5.46-25.47s3.62-17,5.43-25.55h7.56C164.11,57.46,159,80.13,153.84,103c-.58,0-1.1.09-1.63.1-2.65,0-5.31,0-8,0-2,0-1.69,0-2.25-1.64q-7.69-21.68-15.36-43.34c-.22-.64-.48-1.27-.72-1.9Z"/><path class="cls-2" d="M269.74,17.24H253.52c-.09-.73-.19-1.42-.27-2.1a16.26,16.26,0,0,0-2-6.15C249.7,6.11,247,5,244,5a7.36,7.36,0,0,0-7,3.87,15.44,15.44,0,0,0-2,7.31c-.17,5.9-.15,11.81-.19,17.71a2.77,2.77,0,0,0,.16.73h19.7c0,1,.06,1.89.07,2.79s0,1.83,0,3c-1.67.17-3.27.06-4.87.08s-3.36,0-5,0H234.9c-.05.84-.13,1.58-.13,2.31v60.2H220.13V40.45H208.37v-5.8H220c0-.73.07-1.31.09-1.88.07-3.9.06-7.81.24-11.7a25,25,0,0,1,2.18-9,18.72,18.72,0,0,1,15-11.59A44.26,44.26,0,0,1,256.84,1.8c7,2.05,11.25,6.8,12.72,14C269.65,16.2,269.67,16.63,269.74,17.24Z"/><path class="cls-2" d="M292.87,10.24V34.63h1.9c7.16,0,14.31,0,21.47,0a54.06,54.06,0,0,1,12.42,1.26A22.76,22.76,0,0,1,340,42.58c-.35-.07-.58-.08-.79-.15a40.44,40.44,0,0,0-12.47-2c-10.84-.08-21.68,0-32.53,0-.36,0-.73.07-1.22.12,0,.59-.1,1.11-.1,1.63,0,14.59,0,29.17,0,43.75a28,28,0,0,0,.56,5.16c.82,4.18,2.39,6.15,7.74,7a27.58,27.58,0,0,0,9.14-.28v5.73c-1.83.3-3.62.69-5.44.87a48,48,0,0,1-16-.84,12.36,12.36,0,0,1-9.64-9.5,31.22,31.22,0,0,1-1-8V40.48H267V34.69h11.23c0-.71.09-1.23.1-1.75,0-2.93,0-5.86,0-8.79a2,2,0,0,1,.61-1.73c4.47-3.94,8.92-7.92,13.38-11.88A3.51,3.51,0,0,1,292.87,10.24Z"/><path class="cls-2" d="M28.19,101.65v-9l1.55.76c3.82,1.92,7.61,3.91,11.86,4.76,4.41.89,8.81,1.18,13.17-.19A11.26,11.26,0,0,0,62.6,84a11,11,0,0,0-4.92-6.44c-2.61-1.65-5.29-3.19-8-4.66-2.14-1.15-4.39-2.11-6.58-3.18a47.63,47.63,0,0,1-9.25-6,14.6,14.6,0,0,1-5.43-11.51,19.94,19.94,0,0,1,.68-5.95,16.27,16.27,0,0,1,9.81-11A34.79,34.79,0,0,1,49,33.07a56.29,56.29,0,0,1,19.5,2.47V44c-.6-.27-1.08-.48-1.55-.71-3.41-1.64-6.8-3.36-10.58-4a24.59,24.59,0,0,0-10-.17c-.68.16-1.34.4-2,.62-6.48,2.18-7,9.58-4,13.63a11.52,11.52,0,0,0,3.88,3.41c3.83,2,7.65,4.05,11.56,5.9A50.07,50.07,0,0,1,67,69.68a17.16,17.16,0,0,1,5.84,10.58,22.7,22.7,0,0,1-1,11.06,16.21,16.21,0,0,1-6.62,8.59,26.06,26.06,0,0,1-11.18,4.15,57.91,57.91,0,0,1-25-2.1C28.79,101.89,28.55,101.78,28.19,101.65Z"/><path class="cls-2" d="M181.4,34.74a4.44,4.44,0,0,1,.71-.1h13.46c.4,1.23.58,64.18.22,68.1-1.14.39-12.64.47-14.39.08Z"/><path class="cls-1" d="M188.68,21.2a9,9,0,0,1-9-9.16,9.22,9.22,0,0,1,18.43.07A9.23,9.23,0,0,1,188.68,21.2Z"/></g></g></svg>